<svg height="512" viewBox="0 0 64 64" width="512" xmlns="http://www.w3.org/2000/svg"><g id="Music_System" data-name="Music System"><rect fill="#ff7956" height="58" rx="2" width="28" x="33" y="3"/><path d="m37 53h20v4h-20z" fill="#46f8ff"/><circle cx="47" cy="39" fill="#ffde55" r="10"/><circle cx="47" cy="15" fill="#ffde55" r="8"/><circle cx="47" cy="15" fill="#b2fa09" r="2"/><circle cx="47" cy="39" fill="#b2fa09" r="2"/><path d="m27 21v38a2.006 2.006 0 0 1 -2 2h-20a2.006 2.006 0 0 1 -2-2v-38a2.006 2.006 0 0 1 2-2h4l1 4h10l1-4h4a2.006 2.006 0 0 1 2 2z" fill="#46f8ff"/><path d="m21 19-1 4h-10l-1-4z" fill="#ffde55"/><path d="m19 33v4l-8 2v-4z" fill="#b2fa09"/><g fill="#ff3051"><circle cx="17" cy="43" r="2"/><circle cx="15" cy="13" r="2"/><circle cx="9" cy="45" r="2"/></g><path d="m25 18h-20a3 3 0 0 0 -3 3v38a3 3 0 0 0 3 3h20a3 3 0 0 0 3-3v-38a3 3 0 0 0 -3-3zm-5.281 2-.5 2h-8.438l-.5-2zm6.281 39a1 1 0 0 1 -1 1h-20a1 1 0 0 1 -1-1v-38a1 1 0 0 1 1-1h3.22l.81 3.242a1 1 0 0 0 .97.758h10a1 1 0 0 0 .97-.758l.81-3.242h3.22a1 1 0 0 1 1 1z"/><path d="m59 2h-24a3 3 0 0 0 -3 3v54a3 3 0 0 0 3 3h24a3 3 0 0 0 3-3v-54a3 3 0 0 0 -3-3zm1 57a1 1 0 0 1 -1 1h-24a1 1 0 0 1 -1-1v-54a1 1 0 0 1 1-1h24a1 1 0 0 1 1 1z"/><path d="m15 4a9.01 9.01 0 0 1 9 9h2a11 11 0 0 0 -22 0h2a9.01 9.01 0 0 1 9-9z"/><path d="m20 13h2a7 7 0 0 0 -14 0h2a5 5 0 0 1 10 0z"/><path d="m12 13a3 3 0 1 0 3-3 3 3 0 0 0 -3 3zm4 0a1 1 0 1 1 -1-1 1 1 0 0 1 1 1z"/><path d="m47 24a9 9 0 1 0 -9-9 9.01 9.01 0 0 0 9 9zm0-16a7 7 0 1 1 -7 7 7.009 7.009 0 0 1 7-7z"/><path d="m47 28a11 11 0 1 0 11 11 11.013 11.013 0 0 0 -11-11zm0 20a9 9 0 1 1 9-9 9.01 9.01 0 0 1 -9 9z"/><path d="m47 32v2a5.006 5.006 0 0 1 5 5h2a7.009 7.009 0 0 0 -7-7z"/><path d="m47 36a3 3 0 1 0 3 3 3 3 0 0 0 -3-3zm0 4a1 1 0 1 1 1-1 1 1 0 0 1 -1 1z"/><path d="m47 18a3 3 0 1 0 -3-3 3 3 0 0 0 3 3zm0-4a1 1 0 1 1 -1 1 1 1 0 0 1 1-1z"/><path d="m57 52h-20a1 1 0 0 0 -1 1v4a1 1 0 0 0 1 1h20a1 1 0 0 0 1-1v-4a1 1 0 0 0 -1-1zm-1 4h-18v-2h18z"/><path d="m18.758 32.03-8 2a1 1 0 0 0 -.758.97v7.184a2.966 2.966 0 0 0 -1-.184 3 3 0 1 0 3 3v-5.22l6-1.5v1.9a2.966 2.966 0 0 0 -1-.18 3 3 0 1 0 3 3v-10a1 1 0 0 0 -1.242-.97zm-9.758 13.97a1 1 0 1 1 1-1 1 1 0 0 1 -1 1zm3-8.28v-1.939l6-1.5v1.939zm5 6.28a1 1 0 1 1 1-1 1 1 0 0 1 -1 1z"/></g></svg>